<mxfile host="app.diagrams.net" modified="2021-11-05T08:07:29.572Z" agent="5.0 (Macintosh; Intel Mac OS X 10_15_7) AppleWebKit/537.36 (KHTML, like Gecko) Chrome/95.0.4638.69 Safari/537.36" etag="xxlNYJRvul4Kh2PeNcMM" version="15.6.8" type="github">
  <diagram id="L_9b_UmIfe8YwMNYyWJJ" name="Use Case">
    <mxGraphModel dx="783" dy="390" grid="1" gridSize="10" guides="1" tooltips="1" connect="1" arrows="1" fold="1" page="1" pageScale="1" pageWidth="850" pageHeight="1100" math="0" shadow="0">
      <root>
        <mxCell id="0" />
        <mxCell id="1" parent="0" />
        <mxCell id="XSc1rhpc9z_OcMvs1Q15-1" value="Ecommerce" style="shape=umlFrame;whiteSpace=wrap;html=1;width=80;height=20;sketch=0;" vertex="1" parent="1">
          <mxGeometry x="570" y="250" width="515" height="560" as="geometry" />
        </mxCell>
        <mxCell id="XSc1rhpc9z_OcMvs1Q15-2" style="edgeStyle=none;rounded=0;orthogonalLoop=1;jettySize=auto;html=1;entryX=0;entryY=0.5;entryDx=0;entryDy=0;sketch=0;" edge="1" parent="1" source="XSc1rhpc9z_OcMvs1Q15-10" target="XSc1rhpc9z_OcMvs1Q15-36">
          <mxGeometry relative="1" as="geometry" />
        </mxCell>
        <mxCell id="XSc1rhpc9z_OcMvs1Q15-3" style="edgeStyle=none;rounded=0;orthogonalLoop=1;jettySize=auto;html=1;entryX=0.036;entryY=0.7;entryDx=0;entryDy=0;entryPerimeter=0;sketch=0;" edge="1" parent="1" source="XSc1rhpc9z_OcMvs1Q15-10" target="XSc1rhpc9z_OcMvs1Q15-19">
          <mxGeometry relative="1" as="geometry" />
        </mxCell>
        <mxCell id="XSc1rhpc9z_OcMvs1Q15-4" style="edgeStyle=none;rounded=0;orthogonalLoop=1;jettySize=auto;html=1;entryX=0;entryY=0.5;entryDx=0;entryDy=0;sketch=0;" edge="1" parent="1" source="XSc1rhpc9z_OcMvs1Q15-10" target="XSc1rhpc9z_OcMvs1Q15-18">
          <mxGeometry relative="1" as="geometry" />
        </mxCell>
        <mxCell id="XSc1rhpc9z_OcMvs1Q15-5" style="edgeStyle=none;rounded=0;orthogonalLoop=1;jettySize=auto;html=1;entryX=0;entryY=0.5;entryDx=0;entryDy=0;sketch=0;" edge="1" parent="1" source="XSc1rhpc9z_OcMvs1Q15-10" target="XSc1rhpc9z_OcMvs1Q15-17">
          <mxGeometry relative="1" as="geometry" />
        </mxCell>
        <mxCell id="XSc1rhpc9z_OcMvs1Q15-6" style="edgeStyle=none;rounded=0;orthogonalLoop=1;jettySize=auto;html=1;entryX=0;entryY=0.5;entryDx=0;entryDy=0;sketch=0;" edge="1" parent="1" source="XSc1rhpc9z_OcMvs1Q15-10" target="XSc1rhpc9z_OcMvs1Q15-16">
          <mxGeometry relative="1" as="geometry" />
        </mxCell>
        <mxCell id="XSc1rhpc9z_OcMvs1Q15-7" style="edgeStyle=none;rounded=0;orthogonalLoop=1;jettySize=auto;html=1;entryX=0;entryY=0.5;entryDx=0;entryDy=0;sketch=0;" edge="1" parent="1" source="XSc1rhpc9z_OcMvs1Q15-10" target="XSc1rhpc9z_OcMvs1Q15-15">
          <mxGeometry relative="1" as="geometry" />
        </mxCell>
        <mxCell id="XSc1rhpc9z_OcMvs1Q15-8" style="edgeStyle=none;rounded=0;orthogonalLoop=1;jettySize=auto;html=1;entryX=0;entryY=0.5;entryDx=0;entryDy=0;sketch=0;" edge="1" parent="1" source="XSc1rhpc9z_OcMvs1Q15-10" target="XSc1rhpc9z_OcMvs1Q15-28">
          <mxGeometry relative="1" as="geometry" />
        </mxCell>
        <mxCell id="XSc1rhpc9z_OcMvs1Q15-9" style="edgeStyle=none;rounded=0;sketch=0;orthogonalLoop=1;jettySize=auto;html=1;entryX=0;entryY=0.5;entryDx=0;entryDy=0;" edge="1" parent="1" source="XSc1rhpc9z_OcMvs1Q15-10" target="XSc1rhpc9z_OcMvs1Q15-37">
          <mxGeometry relative="1" as="geometry">
            <mxPoint x="640" y="775" as="targetPoint" />
          </mxGeometry>
        </mxCell>
        <mxCell id="XSc1rhpc9z_OcMvs1Q15-10" value="Customer" style="shape=umlActor;verticalLabelPosition=bottom;verticalAlign=top;html=1;sketch=0;" vertex="1" parent="1">
          <mxGeometry x="380" y="355" width="30" height="60" as="geometry" />
        </mxCell>
        <mxCell id="XSc1rhpc9z_OcMvs1Q15-11" style="edgeStyle=none;rounded=0;orthogonalLoop=1;jettySize=auto;html=1;entryX=1;entryY=0.5;entryDx=0;entryDy=0;sketch=0;" edge="1" parent="1" source="XSc1rhpc9z_OcMvs1Q15-14" target="XSc1rhpc9z_OcMvs1Q15-20">
          <mxGeometry relative="1" as="geometry" />
        </mxCell>
        <mxCell id="XSc1rhpc9z_OcMvs1Q15-12" style="edgeStyle=none;rounded=0;orthogonalLoop=1;jettySize=auto;html=1;entryX=1;entryY=0.5;entryDx=0;entryDy=0;sketch=0;" edge="1" parent="1" source="XSc1rhpc9z_OcMvs1Q15-14" target="XSc1rhpc9z_OcMvs1Q15-29">
          <mxGeometry relative="1" as="geometry" />
        </mxCell>
        <mxCell id="XSc1rhpc9z_OcMvs1Q15-13" style="edgeStyle=none;rounded=0;orthogonalLoop=1;jettySize=auto;html=1;entryX=1;entryY=0;entryDx=0;entryDy=0;sketch=0;" edge="1" parent="1" source="XSc1rhpc9z_OcMvs1Q15-14" target="XSc1rhpc9z_OcMvs1Q15-27">
          <mxGeometry relative="1" as="geometry" />
        </mxCell>
        <mxCell id="XSc1rhpc9z_OcMvs1Q15-14" value="Admin&lt;br&gt;" style="shape=umlActor;verticalLabelPosition=bottom;verticalAlign=top;html=1;sketch=0;" vertex="1" parent="1">
          <mxGeometry x="1210" y="340" width="30" height="60" as="geometry" />
        </mxCell>
        <mxCell id="XSc1rhpc9z_OcMvs1Q15-15" value="Browse Food" style="ellipse;whiteSpace=wrap;html=1;sketch=0;" vertex="1" parent="1">
          <mxGeometry x="630" y="380" width="140" height="40" as="geometry" />
        </mxCell>
        <mxCell id="XSc1rhpc9z_OcMvs1Q15-16" value="View Food Detail" style="ellipse;whiteSpace=wrap;html=1;sketch=0;" vertex="1" parent="1">
          <mxGeometry x="630" y="450" width="140" height="40" as="geometry" />
        </mxCell>
        <mxCell id="XSc1rhpc9z_OcMvs1Q15-17" value="Add to Cart&lt;br&gt;" style="ellipse;whiteSpace=wrap;html=1;sketch=0;" vertex="1" parent="1">
          <mxGeometry x="630" y="520" width="140" height="40" as="geometry" />
        </mxCell>
        <mxCell id="XSc1rhpc9z_OcMvs1Q15-18" value="Checkout" style="ellipse;whiteSpace=wrap;html=1;sketch=0;" vertex="1" parent="1">
          <mxGeometry x="630" y="580" width="140" height="30" as="geometry" />
        </mxCell>
        <mxCell id="XSc1rhpc9z_OcMvs1Q15-19" value="Make payments" style="ellipse;whiteSpace=wrap;html=1;sketch=0;" vertex="1" parent="1">
          <mxGeometry x="630" y="630" width="140" height="40" as="geometry" />
        </mxCell>
        <mxCell id="XSc1rhpc9z_OcMvs1Q15-20" value="Manage Users" style="ellipse;whiteSpace=wrap;html=1;sketch=0;" vertex="1" parent="1">
          <mxGeometry x="872.5" y="315" width="140" height="40" as="geometry" />
        </mxCell>
        <mxCell id="XSc1rhpc9z_OcMvs1Q15-21" style="edgeStyle=none;rounded=0;sketch=0;orthogonalLoop=1;jettySize=auto;html=1;entryX=1;entryY=0.5;entryDx=0;entryDy=0;" edge="1" parent="1" source="XSc1rhpc9z_OcMvs1Q15-22" target="XSc1rhpc9z_OcMvs1Q15-15">
          <mxGeometry relative="1" as="geometry" />
        </mxCell>
        <mxCell id="XSc1rhpc9z_OcMvs1Q15-22" value="Products" style="ellipse;whiteSpace=wrap;html=1;sketch=0;" vertex="1" parent="1">
          <mxGeometry x="868" y="447.5" width="140" height="40" as="geometry" />
        </mxCell>
        <mxCell id="XSc1rhpc9z_OcMvs1Q15-23" style="edgeStyle=none;rounded=0;sketch=0;orthogonalLoop=1;jettySize=auto;html=1;" edge="1" parent="1" source="XSc1rhpc9z_OcMvs1Q15-25" target="XSc1rhpc9z_OcMvs1Q15-18">
          <mxGeometry relative="1" as="geometry" />
        </mxCell>
        <mxCell id="XSc1rhpc9z_OcMvs1Q15-24" style="edgeStyle=none;rounded=0;sketch=0;orthogonalLoop=1;jettySize=auto;html=1;entryX=0.9;entryY=0.12;entryDx=0;entryDy=0;entryPerimeter=0;startArrow=none;" edge="1" parent="1" source="XSc1rhpc9z_OcMvs1Q15-57" target="XSc1rhpc9z_OcMvs1Q15-36">
          <mxGeometry relative="1" as="geometry" />
        </mxCell>
        <mxCell id="XSc1rhpc9z_OcMvs1Q15-25" value="Order" style="ellipse;whiteSpace=wrap;html=1;sketch=0;" vertex="1" parent="1">
          <mxGeometry x="880" y="502.5" width="140" height="30" as="geometry" />
        </mxCell>
        <mxCell id="XSc1rhpc9z_OcMvs1Q15-26" value="Transaction(s)" style="ellipse;whiteSpace=wrap;html=1;sketch=0;" vertex="1" parent="1">
          <mxGeometry x="890" y="572.5" width="95" height="45" as="geometry" />
        </mxCell>
        <mxCell id="XSc1rhpc9z_OcMvs1Q15-27" value="Make Settings" style="ellipse;whiteSpace=wrap;html=1;sketch=0;" vertex="1" parent="1">
          <mxGeometry x="880" y="375" width="140" height="50" as="geometry" />
        </mxCell>
        <mxCell id="XSc1rhpc9z_OcMvs1Q15-28" value="Manage Profile" style="ellipse;whiteSpace=wrap;html=1;sketch=0;" vertex="1" parent="1">
          <mxGeometry x="630" y="310" width="140" height="45" as="geometry" />
        </mxCell>
        <mxCell id="XSc1rhpc9z_OcMvs1Q15-29" value="SEO" style="ellipse;whiteSpace=wrap;html=1;sketch=0;" vertex="1" parent="1">
          <mxGeometry x="893.75" y="270" width="97.5" height="30" as="geometry" />
        </mxCell>
        <mxCell id="XSc1rhpc9z_OcMvs1Q15-30" style="edgeStyle=none;rounded=0;orthogonalLoop=1;jettySize=auto;html=1;entryX=0;entryY=0.5;entryDx=0;entryDy=0;fillColor=#d5e8d4;strokeColor=#82b366;sketch=0;" edge="1" parent="1" source="XSc1rhpc9z_OcMvs1Q15-31" target="XSc1rhpc9z_OcMvs1Q15-19">
          <mxGeometry relative="1" as="geometry" />
        </mxCell>
        <mxCell id="XSc1rhpc9z_OcMvs1Q15-31" value="Paynow" style="shape=umlActor;verticalLabelPosition=bottom;verticalAlign=top;html=1;sketch=0;" vertex="1" parent="1">
          <mxGeometry x="380" y="487.5" width="30" height="60" as="geometry" />
        </mxCell>
        <mxCell id="XSc1rhpc9z_OcMvs1Q15-32" style="edgeStyle=none;rounded=0;orthogonalLoop=1;jettySize=auto;html=1;entryX=0;entryY=0.5;entryDx=0;entryDy=0;fillColor=#d5e8d4;strokeColor=#82b366;sketch=0;" edge="1" parent="1" source="XSc1rhpc9z_OcMvs1Q15-33" target="XSc1rhpc9z_OcMvs1Q15-19">
          <mxGeometry relative="1" as="geometry" />
        </mxCell>
        <mxCell id="XSc1rhpc9z_OcMvs1Q15-33" value="Paypal" style="shape=umlActor;verticalLabelPosition=bottom;verticalAlign=top;html=1;sketch=0;" vertex="1" parent="1">
          <mxGeometry x="380" y="602.5" width="30" height="60" as="geometry" />
        </mxCell>
        <mxCell id="XSc1rhpc9z_OcMvs1Q15-34" style="edgeStyle=none;rounded=0;orthogonalLoop=1;jettySize=auto;html=1;entryX=0;entryY=0.5;entryDx=0;entryDy=0;fillColor=#d5e8d4;strokeColor=#82b366;sketch=0;" edge="1" parent="1" source="XSc1rhpc9z_OcMvs1Q15-35" target="XSc1rhpc9z_OcMvs1Q15-19">
          <mxGeometry relative="1" as="geometry" />
        </mxCell>
        <mxCell id="XSc1rhpc9z_OcMvs1Q15-35" value="Stripe" style="shape=umlActor;verticalLabelPosition=bottom;verticalAlign=top;html=1;sketch=0;" vertex="1" parent="1">
          <mxGeometry x="380" y="715" width="30" height="60" as="geometry" />
        </mxCell>
        <mxCell id="XSc1rhpc9z_OcMvs1Q15-36" value="Track order" style="ellipse;whiteSpace=wrap;html=1;sketch=0;" vertex="1" parent="1">
          <mxGeometry x="630" y="690" width="140" height="50" as="geometry" />
        </mxCell>
        <mxCell id="XSc1rhpc9z_OcMvs1Q15-37" value="Blogs" style="ellipse;whiteSpace=wrap;html=1;sketch=0;" vertex="1" parent="1">
          <mxGeometry x="630" y="750" width="140" height="40" as="geometry" />
        </mxCell>
        <mxCell id="XSc1rhpc9z_OcMvs1Q15-38" style="edgeStyle=none;rounded=0;orthogonalLoop=1;jettySize=auto;html=1;entryX=1;entryY=0.5;entryDx=0;entryDy=0;sketch=0;startArrow=none;" edge="1" parent="1" source="XSc1rhpc9z_OcMvs1Q15-54" target="XSc1rhpc9z_OcMvs1Q15-22">
          <mxGeometry relative="1" as="geometry" />
        </mxCell>
        <mxCell id="XSc1rhpc9z_OcMvs1Q15-39" style="edgeStyle=none;rounded=0;orthogonalLoop=1;jettySize=auto;html=1;entryX=1;entryY=0.5;entryDx=0;entryDy=0;startArrow=none;sketch=0;" edge="1" parent="1" source="XSc1rhpc9z_OcMvs1Q15-43" target="XSc1rhpc9z_OcMvs1Q15-25">
          <mxGeometry relative="1" as="geometry" />
        </mxCell>
        <mxCell id="XSc1rhpc9z_OcMvs1Q15-40" style="edgeStyle=none;rounded=0;orthogonalLoop=1;jettySize=auto;html=1;entryX=1;entryY=0.5;entryDx=0;entryDy=0;sketch=0;startArrow=none;" edge="1" parent="1" source="XSc1rhpc9z_OcMvs1Q15-47" target="XSc1rhpc9z_OcMvs1Q15-26">
          <mxGeometry relative="1" as="geometry" />
        </mxCell>
        <mxCell id="XSc1rhpc9z_OcMvs1Q15-41" style="edgeStyle=none;rounded=0;orthogonalLoop=1;jettySize=auto;html=1;sketch=0;startArrow=none;" edge="1" parent="1" source="XSc1rhpc9z_OcMvs1Q15-49" target="XSc1rhpc9z_OcMvs1Q15-37">
          <mxGeometry relative="1" as="geometry" />
        </mxCell>
        <mxCell id="XSc1rhpc9z_OcMvs1Q15-42" value="Shop Keeper" style="shape=umlActor;verticalLabelPosition=bottom;verticalAlign=top;html=1;sketch=0;" vertex="1" parent="1">
          <mxGeometry x="1230" y="487.5" width="30" height="60" as="geometry" />
        </mxCell>
        <mxCell id="XSc1rhpc9z_OcMvs1Q15-43" value="Manage" style="text;align=center;fontStyle=0;verticalAlign=middle;spacingLeft=3;spacingRight=3;rotatable=0;points=[[0,0.5],[1,0.5]];portConstraint=eastwest;sketch=0;" vertex="1" parent="1">
          <mxGeometry x="1100" y="506.5" width="80" height="26" as="geometry" />
        </mxCell>
        <mxCell id="XSc1rhpc9z_OcMvs1Q15-44" value="" style="edgeStyle=none;rounded=0;orthogonalLoop=1;jettySize=auto;html=1;entryX=1;entryY=0.5;entryDx=0;entryDy=0;endArrow=none;sketch=0;" edge="1" parent="1" source="XSc1rhpc9z_OcMvs1Q15-42" target="XSc1rhpc9z_OcMvs1Q15-43">
          <mxGeometry relative="1" as="geometry">
            <mxPoint x="1230" y="517.5" as="sourcePoint" />
            <mxPoint x="1020" y="517.5" as="targetPoint" />
          </mxGeometry>
        </mxCell>
        <mxCell id="XSc1rhpc9z_OcMvs1Q15-45" style="edgeStyle=none;rounded=0;orthogonalLoop=1;jettySize=auto;html=1;sketch=0;startArrow=none;" edge="1" parent="1" source="XSc1rhpc9z_OcMvs1Q15-51" target="XSc1rhpc9z_OcMvs1Q15-37">
          <mxGeometry relative="1" as="geometry" />
        </mxCell>
        <mxCell id="XSc1rhpc9z_OcMvs1Q15-46" value="Admin" style="shape=umlActor;verticalLabelPosition=bottom;verticalAlign=top;html=1;sketch=0;" vertex="1" parent="1">
          <mxGeometry x="1230" y="670" width="30" height="60" as="geometry" />
        </mxCell>
        <mxCell id="XSc1rhpc9z_OcMvs1Q15-47" value="Manage" style="text;align=center;fontStyle=0;verticalAlign=middle;spacingLeft=3;spacingRight=3;strokeColor=none;rotatable=0;points=[[0,0.5],[1,0.5]];portConstraint=eastwest;sketch=0;" vertex="1" parent="1">
          <mxGeometry x="1100" y="537" width="80" height="26" as="geometry" />
        </mxCell>
        <mxCell id="XSc1rhpc9z_OcMvs1Q15-48" value="" style="edgeStyle=none;rounded=0;orthogonalLoop=1;jettySize=auto;html=1;entryX=1;entryY=0.5;entryDx=0;entryDy=0;sketch=0;endArrow=none;" edge="1" parent="1" source="XSc1rhpc9z_OcMvs1Q15-42" target="XSc1rhpc9z_OcMvs1Q15-47">
          <mxGeometry relative="1" as="geometry">
            <mxPoint x="1230" y="521.9711538461538" as="sourcePoint" />
            <mxPoint x="985" y="595" as="targetPoint" />
          </mxGeometry>
        </mxCell>
        <mxCell id="XSc1rhpc9z_OcMvs1Q15-49" value="Create and Manage" style="text;align=center;fontStyle=0;verticalAlign=middle;spacingLeft=3;spacingRight=3;strokeColor=none;rotatable=0;points=[[0,0.5],[1,0.5]];portConstraint=eastwest;sketch=0;" vertex="1" parent="1">
          <mxGeometry x="1110" y="576.5" width="80" height="26" as="geometry" />
        </mxCell>
        <mxCell id="XSc1rhpc9z_OcMvs1Q15-50" value="" style="edgeStyle=none;rounded=0;orthogonalLoop=1;jettySize=auto;html=1;sketch=0;endArrow=none;" edge="1" parent="1" source="XSc1rhpc9z_OcMvs1Q15-42" target="XSc1rhpc9z_OcMvs1Q15-49">
          <mxGeometry relative="1" as="geometry">
            <mxPoint x="1230" y="528.3735696102946" as="sourcePoint" />
            <mxPoint x="963.722640523888" y="721.3992632042243" as="targetPoint" />
          </mxGeometry>
        </mxCell>
        <mxCell id="XSc1rhpc9z_OcMvs1Q15-51" value="Create&#xa;and Manage" style="text;align=center;fontStyle=0;verticalAlign=middle;spacingLeft=3;spacingRight=3;strokeColor=none;rotatable=0;points=[[0,0.5],[1,0.5]];portConstraint=eastwest;sketch=0;" vertex="1" parent="1">
          <mxGeometry x="1090" y="690" width="80" height="26" as="geometry" />
        </mxCell>
        <mxCell id="XSc1rhpc9z_OcMvs1Q15-52" value="" style="edgeStyle=none;rounded=0;orthogonalLoop=1;jettySize=auto;html=1;sketch=0;endArrow=none;" edge="1" parent="1" source="XSc1rhpc9z_OcMvs1Q15-46" target="XSc1rhpc9z_OcMvs1Q15-51">
          <mxGeometry relative="1" as="geometry">
            <mxPoint x="1230" y="701.9543973941368" as="sourcePoint" />
            <mxPoint x="1001.6900816041455" y="731.7016180320331" as="targetPoint" />
          </mxGeometry>
        </mxCell>
        <mxCell id="XSc1rhpc9z_OcMvs1Q15-53" value="&lt;&lt;include&gt;&gt;" style="text;align=center;fontStyle=0;verticalAlign=middle;spacingLeft=3;spacingRight=3;strokeColor=none;rotatable=0;points=[[0,0.5],[1,0.5]];portConstraint=eastwest;sketch=0;" vertex="1" parent="1">
          <mxGeometry x="770" y="420" width="80" height="26" as="geometry" />
        </mxCell>
        <mxCell id="XSc1rhpc9z_OcMvs1Q15-54" value="Manage" style="text;align=center;fontStyle=0;verticalAlign=middle;spacingLeft=3;spacingRight=3;strokeColor=none;rotatable=0;points=[[0,0.5],[1,0.5]];portConstraint=eastwest;sketch=0;" vertex="1" parent="1">
          <mxGeometry x="1120" y="480.5" width="80" height="26" as="geometry" />
        </mxCell>
        <mxCell id="XSc1rhpc9z_OcMvs1Q15-55" value="" style="edgeStyle=none;rounded=0;orthogonalLoop=1;jettySize=auto;html=1;entryX=0.863;entryY=1.038;entryDx=0;entryDy=0;sketch=0;endArrow=none;entryPerimeter=0;" edge="1" parent="1" source="XSc1rhpc9z_OcMvs1Q15-42" target="XSc1rhpc9z_OcMvs1Q15-54">
          <mxGeometry relative="1" as="geometry">
            <mxPoint x="1230" y="514.3354430379746" as="sourcePoint" />
            <mxPoint x="1008" y="467.5" as="targetPoint" />
          </mxGeometry>
        </mxCell>
        <mxCell id="XSc1rhpc9z_OcMvs1Q15-56" value="&lt;&lt;include&gt;&gt;" style="text;align=center;fontStyle=0;verticalAlign=middle;spacingLeft=3;spacingRight=3;strokeColor=none;rotatable=0;points=[[0,0.5],[1,0.5]];portConstraint=eastwest;sketch=0;" vertex="1" parent="1">
          <mxGeometry x="788" y="527" width="80" height="26" as="geometry" />
        </mxCell>
        <mxCell id="XSc1rhpc9z_OcMvs1Q15-57" value="&lt;&lt;include&gt;&gt;" style="text;align=center;fontStyle=0;verticalAlign=middle;spacingLeft=3;spacingRight=3;strokeColor=none;rotatable=0;points=[[0,0.5],[1,0.5]];portConstraint=eastwest;sketch=0;" vertex="1" parent="1">
          <mxGeometry x="788" y="619.5" width="80" height="26" as="geometry" />
        </mxCell>
        <mxCell id="XSc1rhpc9z_OcMvs1Q15-58" value="" style="edgeStyle=none;rounded=0;sketch=0;orthogonalLoop=1;jettySize=auto;html=1;entryX=0.525;entryY=0.019;entryDx=0;entryDy=0;entryPerimeter=0;endArrow=none;" edge="1" parent="1" source="XSc1rhpc9z_OcMvs1Q15-25" target="XSc1rhpc9z_OcMvs1Q15-57">
          <mxGeometry relative="1" as="geometry">
            <mxPoint x="934.0800918071393" y="532.1069260738618" as="sourcePoint" />
            <mxPoint x="756" y="696" as="targetPoint" />
          </mxGeometry>
        </mxCell>
      </root>
    </mxGraphModel>
  </diagram>
</mxfile>
